<?xml version="1.0" encoding="UTF-8" standalone="no"?><!DOCTYPE svg PUBLIC "-//W3C//DTD SVG 1.1//EN" "http://www.w3.org/Graphics/SVG/1.1/DTD/svg11.dtd"><svg xmlns="http://www.w3.org/2000/svg" version="1.1" width="497" height="119"><path fill="none" stroke="#000000" stroke-width="2" stroke-linecap="round" stroke-linejoin="round" d="M 54 101 c -0.12 -0.05 -5.03 -1.64 -7 -3 c -3.12 -2.14 -6.49 -4.96 -9 -8 c -8.34 -10.11 -16.8 -21.08 -24 -32 c -2.98 -4.52 -5.7 -10.18 -7 -15 c -0.86 -3.2 -0.72 -7.71 0 -11 c 0.85 -3.89 2.6 -9.18 5 -12 c 2.66 -3.13 7.91 -6.2 12 -8 c 3.78 -1.66 8.69 -2.52 13 -3 c 4.52 -0.5 9.77 -0.6 14 0 c 2.3 0.33 5.81 1.54 7 3 c 1.29 1.58 2.23 5.62 2 8 c -0.37 3.92 -1.98 9.18 -4 13 c -3.75 7.09 -8.93 14.07 -14 21 c -5.15 7.03 -10.85 12.97 -16 20 c -5.07 6.93 -9.32 13.67 -14 21 c -3.25 5.08 -6.61 10 -9 15 c -1.13 2.36 -2.89 7.56 -2 8 c 1.33 0.67 8.16 -1.59 12 -3 c 6.12 -2.24 11.73 -5.96 18 -8 c 19.54 -6.35 40.53 -10.28 59 -17 c 6.35 -2.31 12.38 -6.82 18 -11 c 7.37 -5.48 14.47 -12.04 21 -18 c 0.85 -0.78 1.55 -3.27 2 -3 c 1.51 0.91 5.52 5.79 8 9 c 3.25 4.21 5.69 8.82 9 13 c 4.46 5.62 8.89 12.04 14 16 c 4.52 3.5 11.41 6.56 17 8 c 5.36 1.38 12.11 1.31 18 1 c 6.61 -0.35 13.45 -1.49 20 -3 c 6.46 -1.49 12.59 -4.49 19 -6 c 4.87 -1.15 10.06 -1.82 15 -2 c 4.26 -0.15 8.86 0.08 13 1 c 7.64 1.7 15.71 5.75 23 7 l 12 -1"/><path fill="none" stroke="#000000" stroke-width="2" stroke-linecap="round" stroke-linejoin="round" d="M 260 1 c -0.35 0.03 -13.82 0.38 -20 2 c -7.31 1.91 -15.08 5.32 -22 9 c -8.64 4.6 -17.41 10 -25 16 c -6.51 5.15 -12.91 11.55 -18 18 c -4.66 5.91 -9.23 13.25 -12 20 c -2.31 5.62 -4 13.3 -4 19 c 0 3.99 1.84 9.92 4 13 c 1.93 2.76 6.54 5.81 10 7 c 5.44 1.88 12.85 3.39 19 3 c 28.94 -1.86 59.05 -6.02 90 -10 c 17.31 -2.23 36.05 -7.29 50 -8 c 2.84 -0.14 5.92 4.05 9 5 c 5.16 1.59 11.3 2.78 17 3 c 20.48 0.78 40.61 -0.4 62 0 c 15.54 0.29 30.8 2.25 45 2 c 3.6 -0.06 7.64 -1.48 11 -3 c 6.73 -3.04 20 -11 20 -11"/></svg>
